# xmcd CD database file
# Copyright (C) 1995-1998 Ti Kan
#
# Track frame offsets:
#	150
#	10672
#	24585
#	39757
#	52182
#	65545
#	81465
#	95902
#	109287
#	121117
#	137767
#	151250
#	166695
#	180665
#	192437
#
# Disc length: 2771 seconds
#
# Revision: 2
# Processed by: cddbd v1.5.2PL0 Copyright (c) Steve Scherf et al.
# Submitted via: CDex 1.30Release
#
DISCID=c40ad10f
DTITLE=Amalia Mendoza - Boleros y rancheras de oro (Disco 2)
DYEAR=1900
DGENRE=Country
TTITLE0=Mucho corazón
TTITLE1=Siempre viva
TTITLE2=Yo lo comprendo
TTITLE3=Que sabes tu
TTITLE4=Y háblame
TTITLE5=En un rincón del alma
TTITLE6=Total
TTITLE7=Ódiame
TTITLE8=Poquita fé
TTITLE9=Lágrimas negras
TTITLE10=Llorar, llorar, llorar
TTITLE11=Puerta falsa
TTITLE12=Amor se escribe con llanto
TTITLE13=Cuando los años pasan
TTITLE14=Cuando dos almas
EXTD=ID3G:   2
EXTT0=
EXTT1=
EXTT2=
EXTT3=
EXTT4=
EXTT5=
EXTT6=
EXTT7=
EXTT8=
EXTT9=
EXTT10=
EXTT11=
EXTT12=
EXTT13=
EXTT14=
PLAYORDER=
